<?xml version="1.0" encoding="utf-8"?>
<!-- Generator: Adobe Illustrator 24.3.0, SVG Export Plug-In . SVG Version: 6.00 Build 0)  -->
<svg version="1.1" id="Layer_1" xmlns="http://www.w3.org/2000/svg" xmlns:xlink="http://www.w3.org/1999/xlink" x="0px" y="0px"
	 viewBox="0 0 260.2 65" style="enable-background:new 0 0 260.2 65;" xml:space="preserve">
<style type="text/css">
	.st0{fill:#2F2F2F;}
	.st1{fill:#B21A81;}
	.st2{fill:#FFFFFF;}
	.st3{fill:#3C3E3D;}
	.st4{fill:#31BFC3;}
	.st5{opacity:0.25;}
	.st6{fill:#808080;}
	.st7{fill:none;stroke:#808080;stroke-width:0.3983;stroke-miterlimit:10;}
	.st8{fill:#93B48E;}
	.st9{opacity:0.88;fill:none;stroke:#93B48E;stroke-width:0.914;stroke-miterlimit:10;}
	.st10{fill:#E9A036;}
	.st11{fill:#A95A21;}
	.st12{fill:none;stroke:#DE001C;stroke-width:0.4874;stroke-miterlimit:10;}
	.st13{fill:#1C816E;}
	.st14{fill:#5BB9A4;}
	.st15{fill:#122D24;}
	.st16{fill:#175929;}
	.st17{fill:#80BC27;}
	.st18{fill:#7FBA28;}
	.st19{fill:#7FB829;}
	.st20{fill:#80BC28;}
	.st21{fill:#80BC2A;}
	.st22{fill:#3C7651;}
	.st23{fill:#3B7550;}
	.st24{fill:#80AA94;}
	.st25{fill:#FAFCFC;}
	.st26{fill:#25524A;}
	.st27{fill:#A9A01F;}
	.st28{fill:#23995B;}
	.st29{fill:#1D4479;}
	.st30{fill:none;stroke:#262728;stroke-width:1.0774;stroke-miterlimit:10;}
	.st31{fill:#28378C;}
	.st32{fill:#40A6E2;}
	.st33{fill:#FCCE1C;}
	.st34{fill:none;stroke:#737373;stroke-width:1.11;stroke-miterlimit:10;}
	.st35{fill:#00B9D7;}
	.st36{fill:none;stroke:#FFFFFF;stroke-width:1.5619;stroke-miterlimit:10;}
	.st37{fill:#2B3A3B;}
	.st38{fill:none;stroke:#6E1215;stroke-width:0.6419;stroke-miterlimit:10;}
	.st39{fill:none;stroke:#6E1215;stroke-width:0.4466;stroke-miterlimit:10;}
	.st40{opacity:0.88;fill:none;stroke:#93B48E;stroke-width:0.5596;stroke-miterlimit:10;}
	.st41{fill:none;stroke:#FFFFFF;stroke-width:0.9404;stroke-miterlimit:10;}
	.st42{fill:none;stroke:#737373;stroke-width:0.5012;stroke-miterlimit:10;}
	.st43{fill:none;stroke:#FFFFFF;stroke-width:1.3888;stroke-miterlimit:10;}
	.st44{fill:none;stroke:#737373;stroke-width:0.7403;stroke-miterlimit:10;}
	.st45{fill:none;stroke:#23995B;stroke-width:0.6635;stroke-miterlimit:10;}
	.st46{fill:none;stroke:#23995B;stroke-width:0.3962;stroke-miterlimit:10;}
	.st47{fill:none;stroke:#28378C;stroke-width:2;stroke-miterlimit:10;}
	.st48{fill:none;stroke:#28378C;stroke-width:1.0909;stroke-miterlimit:10;}
	.st49{fill:#96AFCE;}
	.st50{fill:#3B3888;}
	.st51{fill:none;stroke:#DE001C;stroke-width:0.451;stroke-miterlimit:10;}
	.st52{fill:none;stroke:#DE001C;stroke-width:0.1983;stroke-miterlimit:10;}
	.st53{fill:none;stroke:#DE001C;stroke-width:0.3536;stroke-miterlimit:10;}
	.st54{fill:none;stroke:#808080;stroke-width:0.3418;stroke-miterlimit:10;}
	.st55{fill:none;stroke:#808080;stroke-width:0.2279;stroke-miterlimit:10;}
	.st56{fill:#37B2B5;}
	.st57{fill:#000100;}
	.st58{fill:none;stroke:#C85119;stroke-width:0.8469;stroke-miterlimit:10;}
	.st59{fill:#C85119;}
	.st60{fill:#1A1718;}
	.st61{fill:none;stroke:#96AFCE;stroke-width:0.5236;stroke-miterlimit:10;}
	.st62{fill:#F2F3F1;}
	.st63{fill:#F2F3F2;}
	.st64{fill:#F1F6F2;}
	.st65{fill:#EFF2F0;}
	.st66{fill:#DFE8E2;}
	.st67{fill:#EDF0EC;}
	.st68{fill:none;stroke:#808080;stroke-width:0.736;stroke-miterlimit:10;}
	.st69{fill:none;stroke:#25524A;stroke-width:1.193;stroke-miterlimit:10;}
	.st70{fill:#3CA835;}
	.st71{fill:#020201;}
	.st72{fill:#37B2B5;stroke:#37B2B5;stroke-width:0.6822;stroke-miterlimit:10;}
	.st73{fill:#737373;}
	.st74{fill:#0B4485;}
	.st75{fill:none;stroke:#262728;stroke-width:1.1895;stroke-miterlimit:10;}
	.st76{fill:#6E1215;}
	.st77{opacity:0.88;}
	.st78{fill:#DE001C;}
	.st79{fill:#DF001B;}
	.st80{fill:#020201;stroke:#FFFFFF;stroke-width:0.5409;stroke-miterlimit:10;}
	.st81{fill:#DF001B;stroke:#FFFFFF;stroke-width:0.5409;stroke-miterlimit:10;}
	.st82{fill:#FFFFFF;stroke:#FFFFFF;stroke-width:2;stroke-miterlimit:10;}
	.st83{fill:#23985B;}
	.st84{fill:#262728;}
	.st85{fill:none;stroke:#FFFFFF;stroke-width:1.6144;stroke-miterlimit:10;}
	.st86{fill:none;stroke:#737373;stroke-width:0.7652;stroke-miterlimit:10;}
	.st87{fill:none;stroke:#808080;stroke-width:0.3675;stroke-miterlimit:10;}
	.st88{fill:none;stroke:#40A6E2;stroke-width:1.408;stroke-miterlimit:10;}
	.st89{fill:#DF001B;stroke:#FFFFFF;stroke-width:0.4562;stroke-miterlimit:10;}
	.st90{fill:#1A1818;}
</style>
<g>
	<g>
		<path class="st29" d="M73.5,56.9l5.7-15.7h3.6l5.8,15.7h-2.2l-5.3-14.4l1,0.5h-2.5l1.1-0.5l-5.1,14.4H73.5z M76.9,52.2l0.7-1.9
			h6.8l0.7,1.9H76.9z"/>
		<path class="st29" d="M98.6,57.3c-1.4,0-2.6-0.3-3.6-0.8c-1-0.6-1.7-1.3-2.2-2.3c-0.5-1-0.7-2.2-0.7-3.5v-9.5h2.1v9.8
			c0,0.9,0.2,1.7,0.5,2.3c0.3,0.7,0.8,1.2,1.5,1.6c0.7,0.4,1.5,0.6,2.4,0.6c0.9,0,1.8-0.2,2.4-0.6c0.7-0.4,1.2-0.9,1.5-1.6
			c0.3-0.7,0.5-1.4,0.5-2.3v-9.8h2.1v9.5c0,1.3-0.2,2.5-0.7,3.5c-0.5,1-1.2,1.8-2.2,2.3C101.2,57,100,57.3,98.6,57.3z"/>
		<path class="st29" d="M117.8,57.3c-1.2,0-2.3-0.2-3.3-0.6s-1.8-1-2.6-1.7c-0.7-0.7-1.3-1.6-1.7-2.6c-0.4-1-0.6-2.1-0.6-3.3v-0.5
			c0-1,0.2-2,0.5-2.9c0.4-0.9,0.9-1.8,1.5-2.5c0.7-0.8,1.5-1.4,2.4-1.8c1-0.4,2-0.7,3.3-0.7c1.3,0,2.5,0.2,3.5,0.7
			c1,0.5,1.8,1.2,2.5,2.1c0.6,0.9,1,1.9,1.1,3.1h-2.2c-0.1-0.9-0.4-1.6-0.9-2.2s-1.1-1-1.8-1.3c-0.7-0.3-1.4-0.4-2.3-0.4
			c-0.8,0-1.6,0.1-2.3,0.4c-0.7,0.3-1.3,0.7-1.8,1.3c-0.5,0.5-0.9,1.2-1.2,2c-0.3,0.8-0.4,1.6-0.4,2.6c0,1.1,0.1,2,0.4,2.8
			c0.3,0.8,0.7,1.5,1.2,2c0.5,0.5,1.2,0.9,1.9,1.2c0.7,0.3,1.5,0.4,2.4,0.4c1.2,0,2.3-0.2,3.2-0.7s1.6-1.1,2.1-1.9l-0.8,2.6v-4.7h2
			v3.8c-0.7,0.9-1.6,1.6-2.7,2.2C120.5,57.1,119.2,57.3,117.8,57.3z M117.2,51.1v-1.8h8.4v1.8H117.2z"/>
		<path class="st29" d="M136.2,57.3c-1.4,0-2.6-0.3-3.6-0.8c-1-0.6-1.7-1.3-2.2-2.3c-0.5-1-0.7-2.2-0.7-3.5v-9.5h2.1v9.8
			c0,0.9,0.2,1.7,0.5,2.3c0.3,0.7,0.8,1.2,1.5,1.6c0.7,0.4,1.5,0.6,2.4,0.6c0.9,0,1.8-0.2,2.4-0.6c0.7-0.4,1.2-0.9,1.5-1.6
			c0.3-0.7,0.5-1.4,0.5-2.3v-9.8h2.1v9.5c0,1.3-0.2,2.5-0.7,3.5c-0.5,1-1.2,1.8-2.2,2.3C138.9,57,137.7,57.3,136.2,57.3z"/>
		<path class="st29" d="M153.5,57.3c-1.3,0-2.4-0.2-3.3-0.6c-0.9-0.4-1.6-1-2.1-1.8c-0.5-0.8-0.7-1.6-0.7-2.6h2.1
			c0,0.5,0.1,0.9,0.4,1.4c0.3,0.5,0.7,0.9,1.3,1.2c0.6,0.3,1.4,0.5,2.4,0.5c0.9,0,1.7-0.1,2.3-0.4c0.6-0.3,1-0.6,1.3-1.1
			c0.3-0.5,0.4-0.9,0.4-1.5c0-0.6-0.3-1.2-0.8-1.6c-0.6-0.4-1.4-0.7-2.5-0.8l-1.7-0.2c-1.4-0.1-2.5-0.5-3.3-1.3
			c-0.8-0.7-1.3-1.7-1.3-3c0-1,0.2-1.8,0.7-2.5c0.5-0.7,1.1-1.3,2-1.7c0.8-0.4,1.8-0.6,2.9-0.6c1.1,0,2.1,0.2,2.9,0.6
			c0.8,0.4,1.5,1,2,1.7c0.5,0.7,0.7,1.6,0.7,2.6H157c0-0.5-0.1-1-0.4-1.4c-0.2-0.4-0.6-0.8-1.1-1.1c-0.5-0.3-1.2-0.4-2-0.4
			c-0.8,0-1.4,0.1-1.9,0.4c-0.5,0.3-0.9,0.6-1.1,1.1c-0.3,0.4-0.4,0.9-0.4,1.4c0,0.6,0.2,1.1,0.7,1.5c0.4,0.4,1.1,0.7,2,0.8l1.7,0.2
			c1.1,0.1,2,0.3,2.8,0.7s1.4,0.9,1.8,1.5c0.4,0.6,0.6,1.3,0.6,2.2c0,1-0.3,1.8-0.8,2.6c-0.5,0.7-1.2,1.3-2.2,1.7
			C155.8,57.1,154.7,57.3,153.5,57.3z"/>
		<path class="st29" d="M162.5,43.1v-1.9h11.7v1.9H162.5z M167.3,56.9V42.6h2.1v14.3H167.3z"/>
		<path class="st29" d="M190.4,57.3c-1.2,0-2.2-0.2-3-0.6c-0.8-0.4-1.5-1-2-1.7c-0.5-0.7-0.9-1.5-1.1-2.4c-0.2-0.9-0.3-1.9-0.3-2.9
			v-1.2c0-1.5,0.2-2.8,0.7-3.9s1.2-2.1,2.1-2.8c1-0.7,2.2-1,3.7-1c1.5,0,2.7,0.3,3.7,1c0.9,0.7,1.7,1.6,2.1,2.8s0.7,2.5,0.7,3.9v1.2
			c0,1-0.1,2-0.3,2.9c-0.2,0.9-0.6,1.7-1.1,2.4c-0.5,0.7-1.2,1.3-2,1.7C192.6,57.1,191.6,57.3,190.4,57.3z M190.4,55.4
			c1.5,0,2.6-0.5,3.3-1.5c0.7-1,1-2.6,1-4.8c0-2.3-0.4-3.9-1.1-4.9c-0.7-1-1.8-1.5-3.3-1.5c-1.5,0-2.6,0.5-3.3,1.5
			c-0.7,1-1.1,2.6-1.1,4.9c0,2.2,0.4,3.8,1.1,4.9C187.8,54.9,188.9,55.4,190.4,55.4z"/>
		<path class="st29" d="M207.3,57.4c-1.2,0-2.1-0.2-2.9-0.6c-0.8-0.4-1.4-1-1.8-1.7c-0.5-0.7-0.8-1.5-1-2.4
			c-0.2-0.9-0.3-1.9-0.3-2.8v-1c0-2.5,0.6-4.4,1.9-5.7c1.2-1.3,3-2,5.4-2c0.6,0,1,0,1.4,0c0.4,0,0.8,0.1,1.3,0.1V43
			c-0.5-0.1-0.9-0.1-1.3-0.1c-0.4,0-0.9,0-1.5,0c-1.3,0-2.3,0.2-3.1,0.7c-0.8,0.5-1.3,1.2-1.6,2.1c-0.3,0.9-0.5,2-0.5,3.3v1
			l-0.5,1.9c0-1.1,0.2-2.1,0.7-2.8c0.4-0.7,1-1.3,1.7-1.7c0.7-0.4,1.6-0.6,2.6-0.6c1.1,0,2.1,0.2,2.8,0.7s1.4,1.1,1.8,1.9
			c0.4,0.8,0.6,1.7,0.6,2.7c0,1-0.2,1.9-0.6,2.7c-0.4,0.8-1,1.4-1.9,1.9C209.6,57.1,208.5,57.4,207.3,57.4z M207.3,55.5
			c0.8,0,1.5-0.2,2-0.5c0.5-0.3,0.9-0.7,1.2-1.2c0.3-0.5,0.4-1.1,0.4-1.8c0-0.7-0.1-1.3-0.4-1.8c-0.3-0.5-0.6-0.9-1.2-1.2
			c-0.5-0.3-1.1-0.4-1.9-0.4c-0.7,0-1.4,0.1-2,0.4c-0.6,0.3-1,0.7-1.4,1.2c-0.3,0.5-0.5,1.2-0.5,1.9c0,0.6,0.1,1.2,0.4,1.7
			c0.3,0.5,0.7,1,1.2,1.3C205.8,55.4,206.5,55.5,207.3,55.5z"/>
		<path class="st29" d="M216.8,51.8V50h8v1.8H216.8z"/>
		<path class="st29" d="M235.6,57.3c-1.2,0-2.2-0.2-3-0.6c-0.8-0.4-1.5-1-2-1.7c-0.5-0.7-0.9-1.5-1.1-2.4c-0.2-0.9-0.3-1.9-0.3-2.9
			v-1.2c0-1.5,0.2-2.8,0.7-3.9s1.2-2.1,2.1-2.8c1-0.7,2.2-1,3.7-1c1.5,0,2.7,0.3,3.7,1c0.9,0.7,1.7,1.6,2.1,2.8s0.7,2.5,0.7,3.9v1.2
			c0,1-0.1,2-0.3,2.9c-0.2,0.9-0.6,1.7-1.1,2.4c-0.5,0.7-1.2,1.3-2,1.7C237.8,57.1,236.8,57.3,235.6,57.3z M235.6,55.4
			c1.5,0,2.6-0.5,3.3-1.5c0.7-1,1-2.6,1-4.8c0-2.3-0.4-3.9-1.1-4.9c-0.7-1-1.8-1.5-3.3-1.5c-1.5,0-2.6,0.5-3.3,1.5
			c-0.7,1-1.1,2.6-1.1,4.9c0,2.2,0.4,3.8,1.1,4.9C233,54.9,234.1,55.4,235.6,55.4z"/>
		<path class="st29" d="M248.1,56.9l6.7-13.8l-0.1-0.2H246v-1.8h10.6v2.5l-6.3,13.2H248.1z M246,45.5v-4.3h1.7v4.3H246z"/>
	</g>
	<g>
		<path class="st28" d="M75.4,28.5V6.3h5v22.3H75.4z M79.7,22.2v-4.3h4c0.8,0,1.4-0.2,2-0.5c0.6-0.3,1-0.7,1.3-1.3
			c0.3-0.6,0.5-1.2,0.5-1.9c0-0.8-0.2-1.4-0.5-2c-0.3-0.6-0.7-1-1.3-1.3c-0.6-0.3-1.2-0.4-2-0.4h-4V6.3h3.7c1.9,0,3.5,0.3,4.8,0.9
			c1.3,0.6,2.4,1.5,3.1,2.7c0.7,1.1,1.1,2.5,1.1,4.1v0.5c0,1.6-0.4,2.9-1.1,4.1c-0.7,1.2-1.7,2.1-3.1,2.7c-1.3,0.6-2.9,0.9-4.8,0.9
			H79.7z"/>
		<path class="st28" d="M106.1,29.1c-2,0-3.7-0.3-5.2-1s-2.7-1.6-3.7-2.8c-1-1.1-1.7-2.4-2.2-3.7c-0.5-1.3-0.7-2.6-0.7-3.8v-0.7
			c0-1.4,0.2-2.7,0.7-4.1c0.5-1.3,1.2-2.6,2.2-3.6c1-1.1,2.2-2,3.7-2.6c1.5-0.7,3.2-1,5.1-1c1.9,0,3.6,0.3,5.1,1
			c1.5,0.7,2.7,1.5,3.7,2.6c1,1.1,1.7,2.3,2.2,3.6c0.5,1.3,0.8,2.7,0.8,4.1v0.7c0,1.2-0.2,2.5-0.7,3.8c-0.5,1.3-1.2,2.6-2.2,3.7
			c-1,1.1-2.2,2.1-3.7,2.8S108.1,29.1,106.1,29.1z M106.1,24.5c1,0,2-0.2,2.8-0.5c0.8-0.4,1.6-0.9,2.1-1.5c0.6-0.6,1-1.4,1.3-2.2
			c0.3-0.8,0.5-1.8,0.5-2.7c0-1-0.2-2-0.5-2.8c-0.3-0.9-0.8-1.6-1.4-2.2c-0.6-0.6-1.3-1.1-2.1-1.5c-0.8-0.3-1.8-0.5-2.8-0.5
			c-1,0-2,0.2-2.8,0.5c-0.8,0.3-1.5,0.8-2.1,1.5c-0.6,0.6-1,1.4-1.3,2.2c-0.3,0.9-0.5,1.8-0.5,2.8c0,1,0.2,1.9,0.5,2.7
			c0.3,0.8,0.8,1.6,1.3,2.2c0.6,0.6,1.3,1.1,2.1,1.5C104.2,24.3,105.1,24.5,106.1,24.5z"/>
		<path class="st28" d="M121.7,28.5V6.4h4.8v22.1H121.7z M125.9,10.5V6.4h9.4v4.1H125.9z M125.9,19.4v-4.1h9v4.1H125.9z M125.9,28.5
			v-4.1h9.6v4.1H125.9z"/>
		<path class="st28" d="M149.6,29.1c-2,0-3.7-0.3-5.1-1c-1.4-0.7-2.6-1.6-3.5-2.8c-0.9-1.1-1.6-2.4-2-3.7c-0.4-1.3-0.7-2.6-0.7-3.9
			v-0.7c0-1.4,0.2-2.7,0.7-4.1c0.4-1.3,1.1-2.6,2-3.6c0.9-1.1,2.1-2,3.5-2.6c1.4-0.7,3.1-1,5-1c2,0,3.8,0.4,5.3,1.1
			c1.5,0.7,2.8,1.8,3.7,3.1c0.9,1.3,1.5,2.9,1.6,4.6h-5c-0.1-0.9-0.5-1.6-1-2.3c-0.5-0.6-1.2-1.1-2-1.5c-0.8-0.3-1.7-0.5-2.7-0.5
			c-1,0-1.9,0.2-2.6,0.5c-0.8,0.3-1.4,0.8-1.9,1.5c-0.5,0.6-0.9,1.4-1.2,2.2c-0.3,0.9-0.4,1.8-0.4,2.9c0,1,0.1,2,0.4,2.8
			c0.3,0.9,0.7,1.6,1.2,2.2c0.5,0.6,1.2,1.1,2,1.5c0.8,0.3,1.7,0.5,2.7,0.5c1.5,0,2.8-0.4,3.9-1.1c1.1-0.7,1.7-1.8,1.9-3.1h5
			c-0.2,1.6-0.7,3.1-1.6,4.4c-0.9,1.3-2.1,2.4-3.7,3.2S151.7,29.1,149.6,29.1z"/>
		<path class="st28" d="M162.7,22.1v-4.3h12.7v4.3H162.7z"/>
		<path class="st28" d="M178.6,28.5V24c0-0.9,0.2-1.8,0.5-2.5c0.3-0.7,0.8-1.3,1.5-1.9c0.7-0.6,1.6-1.1,2.7-1.6l3.6-1.5
			c0.9-0.4,1.6-0.9,2-1.4c0.4-0.6,0.7-1.3,0.7-2.1c0-0.9-0.3-1.6-0.8-2.2c-0.5-0.6-1.3-0.8-2.4-0.8c-1,0-1.8,0.3-2.4,0.9
			c-0.5,0.6-0.8,1.4-0.8,2.4h-4.8c0-1.4,0.3-2.6,0.9-3.8s1.5-2,2.7-2.6c1.2-0.6,2.7-1,4.4-1c1.8,0,3.2,0.3,4.4,0.9
			c1.2,0.6,2.1,1.5,2.7,2.5c0.6,1,0.9,2.2,0.9,3.5v0.4c0,1.7-0.5,3.1-1.4,4.2c-0.9,1.1-2.4,2.1-4.3,2.9l-3.5,1.5
			c-0.6,0.3-1,0.5-1.3,0.8c-0.3,0.3-0.4,0.7-0.4,1.1v1.5l-1.2-1h12.1v4.3H178.6z"/>
		<path class="st28" d="M207.5,29.1c-1.8,0-3.3-0.3-4.5-0.9c-1.3-0.6-2.3-1.4-3-2.3c-0.8-1-1.4-2.1-1.7-3.4
			c-0.4-1.3-0.6-2.7-0.6-4.1v-1.7c0-2,0.4-3.8,1.1-5.5c0.7-1.6,1.8-2.9,3.2-3.9c1.5-1,3.3-1.5,5.5-1.5c2.2,0,4.1,0.5,5.5,1.5
			c1.4,1,2.5,2.3,3.2,3.9c0.7,1.6,1.1,3.5,1.1,5.5v1.7c0,1.5-0.2,2.8-0.6,4.1c-0.4,1.3-0.9,2.4-1.7,3.4c-0.8,1-1.8,1.8-3,2.3
			C210.7,28.8,209.2,29.1,207.5,29.1z M207.5,24.5c1.6,0,2.8-0.6,3.6-1.7c0.8-1.1,1.2-2.9,1.2-5.3c0-2.5-0.4-4.4-1.2-5.5
			c-0.8-1.1-2-1.7-3.6-1.7c-1.6,0-2.9,0.6-3.7,1.7c-0.8,1.1-1.2,2.9-1.2,5.4c0,2.4,0.4,4.2,1.2,5.4C204.6,24,205.8,24.5,207.5,24.5z
			"/>
		<path class="st28" d="M220.8,28.5V24c0-0.9,0.2-1.8,0.5-2.5c0.3-0.7,0.8-1.3,1.5-1.9c0.7-0.6,1.6-1.1,2.7-1.6l3.6-1.5
			c0.9-0.4,1.6-0.9,2-1.4c0.4-0.6,0.7-1.3,0.7-2.1c0-0.9-0.3-1.6-0.8-2.2c-0.5-0.6-1.3-0.8-2.4-0.8c-1,0-1.8,0.3-2.4,0.9
			c-0.5,0.6-0.8,1.4-0.8,2.4h-4.8c0-1.4,0.3-2.6,0.9-3.8s1.5-2,2.7-2.6c1.2-0.6,2.7-1,4.4-1c1.8,0,3.2,0.3,4.4,0.9
			c1.2,0.6,2.1,1.5,2.7,2.5c0.6,1,0.9,2.2,0.9,3.5v0.4c0,1.7-0.5,3.1-1.4,4.2c-0.9,1.1-2.4,2.1-4.3,2.9l-3.5,1.5
			c-0.6,0.3-1,0.5-1.3,0.8c-0.3,0.3-0.4,0.7-0.4,1.1v1.5l-1.2-1h12.1v4.3H220.8z"/>
		<path class="st28" d="M249,29.2c-1.6,0-3-0.3-4.2-0.8c-1.2-0.5-2.1-1.3-2.9-2.3c-0.7-1-1.3-2.1-1.6-3.4c-0.4-1.3-0.5-2.6-0.5-4.1
			v-1.3c0-3.7,0.9-6.4,2.8-8.3c1.9-1.9,4.6-2.8,8.3-2.8c0.7,0,1.5,0,2.2,0.1c0.7,0,1.4,0.1,2.1,0.2v4.1c-0.7-0.1-1.4-0.1-2.1-0.2
			c-0.8-0.1-1.6-0.1-2.4-0.1c-1.6,0-2.9,0.3-3.8,0.8c-0.9,0.5-1.6,1.3-2,2.4c-0.4,1.1-0.6,2.4-0.6,4v2.3l-1.1,0.7
			c0-1.5,0.3-2.8,0.9-3.8c0.6-1,1.4-1.8,2.5-2.3c1-0.5,2.3-0.8,3.6-0.8c1.6,0,2.9,0.3,4,0.9c1.1,0.6,2,1.5,2.6,2.6s0.9,2.4,0.9,3.9
			c0,1.6-0.4,3-1.1,4.2c-0.7,1.2-1.7,2.1-3.1,2.8C252.3,28.8,250.7,29.2,249,29.2z M248.8,25c0.9,0,1.6-0.2,2.3-0.5
			c0.6-0.3,1.1-0.8,1.4-1.3s0.5-1.2,0.5-2c0-0.8-0.2-1.4-0.5-2c-0.3-0.6-0.8-1-1.4-1.3c-0.6-0.3-1.3-0.5-2.2-0.5
			c-0.8,0-1.5,0.1-2.2,0.4c-0.7,0.3-1.2,0.7-1.6,1.2c-0.4,0.6-0.6,1.3-0.6,2.1c0,0.7,0.2,1.4,0.5,1.9c0.3,0.6,0.8,1,1.4,1.3
			C247.1,24.9,247.9,25,248.8,25z"/>
	</g>
	<g>
		<g>
			<g>
				<path class="st28" d="M39.7,27c2.5,0.6,4.5,1,6.2,1.4c0,2.6-0.2,5.1,0,7.6c0.4,4.1,1.1,8.2,1.8,12.3c0.3,1.9-0.2,3.4-1.7,4.1
					c-1.9,1-4.1,0-4.7-2.1c-1.7-5.7-2.5-11.4-2.2-17.3C39.3,31,39.6,29.1,39.7,27z"/>
			</g>
			<g>
				<path class="st28" d="M36.9,36.6c0.2,2.3,0.4,4.4,0.6,6.7c-1.1,0.2-2.2,0.5-3.3,0.7c-5.4,1.3-10.3,3.7-15,6.7
					c-1.3,0.8-2.6,1-3.9,0.2c-1.2-0.8-1.8-1.9-1.5-3.2c0.2-0.8,0.6-1.8,1.3-2.3C21.7,40.9,28.8,37.8,36.9,36.6z"/>
			</g>
			<g>
				<path class="st28" d="M31.6,21.3c1.2-2,2.3-3.8,3.4-5.7c0.8,0.4,1.6,0.7,2.3,1.1c5.3,2.3,11,3.4,16.8,3.7
					c2.2,0.1,3.6,1.5,3.5,3.5c-0.1,2-1.6,3.4-3.8,3.3c-7.5-0.4-14.8-1.9-21.6-5.4C32.1,21.6,31.9,21.4,31.6,21.3z"/>
			</g>
			<g>
				<path class="st28" d="M23.8,27.6c-1.8-2-3.2-3.6-4.5-5.1c1.9-2.5,3.9-4.8,5.5-7.4c1.7-2.8,3.1-5.9,4.5-8.9
					c1.2-2.5,2.7-3.6,4.7-2.8c2,0.8,2.6,2.6,1.7,5.2c-2.5,6.6-6.1,12.6-11,17.7C24.4,26.6,24.2,27,23.8,27.6z"/>
			</g>
			<g>
				<path class="st28" d="M20.6,39.5c-3.1-6.2-7.6-11-12.8-15.3c-1.5-1.3-1.7-3.3-0.6-4.7c1.2-1.4,3.1-1.8,4.6-0.7
					c6.3,4.9,11.4,10.7,15,18C24.8,37.7,22.8,38.6,20.6,39.5z"/>
			</g>
		</g>
		<g>
			<path class="st29" d="M11.7,9.8c0-3.5,2.9-6.4,6.4-6.4c3.5,0,6.4,2.9,6.4,6.4c0,3.6-2.8,6.5-6.4,6.5
				C14.6,16.2,11.7,13.3,11.7,9.8z"/>
		</g>
		<g>
			<path class="st29" d="M45.8,16.9c-3.5-0.1-6.4-3-6.3-6.6c0.1-3.5,3-6.3,6.5-6.2c3.6,0,6.4,3,6.3,6.5
				C52.3,14.1,49.4,16.9,45.8,16.9z"/>
		</g>
		<g>
			<path class="st29" d="M61,37c0,3.6-2.9,6.4-6.5,6.4c-3.6,0-6.4-2.9-6.3-6.5c0-3.5,2.8-6.3,6.4-6.3C58.2,30.6,61,33.4,61,37z"/>
		</g>
		<g>
			<path class="st29" d="M31.6,60.2c-3.6-0.1-6.5-3-6.3-6.5c0.1-3.6,3-6.3,6.6-6.3c3.5,0.1,6.4,3.1,6.3,6.6
				C38,57.6,35.1,60.3,31.6,60.2z"/>
		</g>
		<g>
			<path class="st29" d="M8.3,30.1c3.6,0,6.4,2.8,6.4,6.4c0,3.5-2.8,6.3-6.3,6.4c-3.6,0-6.5-2.8-6.5-6.4C1.9,32.9,4.7,30.1,8.3,30.1
				z"/>
		</g>
	</g>
	<g>
		<rect x="73.8" y="34.8" class="st28" width="182.8" height="0.7"/>
	</g>
</g>
</svg>
