<?xml version="1.0" encoding="utf-8"?>
<!-- Generator: Adobe Illustrator 24.3.0, SVG Export Plug-In . SVG Version: 6.00 Build 0)  -->
<svg version="1.1" id="Layer_1" xmlns="http://www.w3.org/2000/svg" xmlns:xlink="http://www.w3.org/1999/xlink" x="0px" y="0px"
	 viewBox="0 0 260.2 65" style="enable-background:new 0 0 260.2 65;" xml:space="preserve">
<style type="text/css">
	.st0{fill:#2F2F2F;}
	.st1{fill:#B21A81;}
	.st2{fill:#FFFFFF;}
	.st3{fill:#3C3E3D;}
	.st4{fill:#31BFC3;}
	.st5{opacity:0.25;}
	.st6{fill:#808080;}
	.st7{fill:none;stroke:#808080;stroke-width:0.3983;stroke-miterlimit:10;}
	.st8{fill:#93B48E;}
	.st9{opacity:0.88;fill:none;stroke:#93B48E;stroke-width:0.914;stroke-miterlimit:10;}
	.st10{fill:#E9A036;}
	.st11{fill:#A95A21;}
	.st12{fill:none;stroke:#DE001C;stroke-width:0.4874;stroke-miterlimit:10;}
	.st13{fill:#1C816E;}
	.st14{fill:#5BB9A4;}
	.st15{fill:#122D24;}
	.st16{fill:#175929;}
	.st17{fill:#80BC27;}
	.st18{fill:#7FBA28;}
	.st19{fill:#7FB829;}
	.st20{fill:#80BC28;}
	.st21{fill:#80BC2A;}
	.st22{fill:#3C7651;}
	.st23{fill:#3B7550;}
	.st24{fill:#80AA94;}
	.st25{fill:#FAFCFC;}
	.st26{fill:#25524A;}
	.st27{fill:#A9A01F;}
	.st28{fill:#23995B;}
	.st29{fill:#1D4479;}
	.st30{fill:none;stroke:#262728;stroke-width:1.0774;stroke-miterlimit:10;}
	.st31{fill:#28378C;}
	.st32{fill:#40A6E2;}
	.st33{fill:#FCCE1C;}
	.st34{fill:none;stroke:#737373;stroke-width:1.11;stroke-miterlimit:10;}
	.st35{fill:#00B9D7;}
	.st36{fill:none;stroke:#FFFFFF;stroke-width:1.5619;stroke-miterlimit:10;}
	.st37{fill:#2B3A3B;}
	.st38{fill:none;stroke:#6E1215;stroke-width:0.6419;stroke-miterlimit:10;}
	.st39{fill:none;stroke:#6E1215;stroke-width:0.4466;stroke-miterlimit:10;}
	.st40{opacity:0.88;fill:none;stroke:#93B48E;stroke-width:0.5596;stroke-miterlimit:10;}
	.st41{fill:none;stroke:#FFFFFF;stroke-width:0.9404;stroke-miterlimit:10;}
	.st42{fill:none;stroke:#737373;stroke-width:0.5012;stroke-miterlimit:10;}
	.st43{fill:none;stroke:#FFFFFF;stroke-width:1.3888;stroke-miterlimit:10;}
	.st44{fill:none;stroke:#737373;stroke-width:0.7403;stroke-miterlimit:10;}
	.st45{fill:none;stroke:#23995B;stroke-width:0.6635;stroke-miterlimit:10;}
	.st46{fill:none;stroke:#23995B;stroke-width:0.3962;stroke-miterlimit:10;}
	.st47{fill:none;stroke:#28378C;stroke-width:2;stroke-miterlimit:10;}
	.st48{fill:none;stroke:#28378C;stroke-width:1.0909;stroke-miterlimit:10;}
	.st49{fill:#96AFCE;}
	.st50{fill:#3B3888;}
	.st51{fill:#F2F3F1;}
	.st52{fill:#F2F3F2;}
	.st53{fill:#F1F6F2;}
	.st54{fill:#EFF2F0;}
	.st55{fill:#DFE8E2;}
	.st56{fill:#EDF0EC;}
	.st57{fill:#3CA835;}
	.st58{fill:none;stroke:#DE001C;stroke-width:0.451;stroke-miterlimit:10;}
	.st59{fill:none;stroke:#DE001C;stroke-width:0.1983;stroke-miterlimit:10;}
	.st60{fill:none;stroke:#DE001C;stroke-width:0.3536;stroke-miterlimit:10;}
	.st61{fill:none;stroke:#808080;stroke-width:0.3418;stroke-miterlimit:10;}
	.st62{fill:#0B4485;}
	.st63{fill:none;stroke:#808080;stroke-width:0.2279;stroke-miterlimit:10;}
	.st64{fill:#020201;}
	.st65{fill:#37B2B5;}
	.st66{fill:#000100;}
	.st67{fill:none;stroke:#C85119;stroke-width:0.8469;stroke-miterlimit:10;}
	.st68{fill:#C85119;}
	.st69{fill:#1A1718;}
	.st70{fill:none;stroke:#96AFCE;stroke-width:0.5236;stroke-miterlimit:10;}
	.st71{fill:none;stroke:#808080;stroke-width:0.736;stroke-miterlimit:10;}
	.st72{fill:none;stroke:#25524A;stroke-width:1.193;stroke-miterlimit:10;}
	.st73{fill:#37B2B5;stroke:#37B2B5;stroke-width:0.6822;stroke-miterlimit:10;}
	.st74{fill:#737373;}
	.st75{fill:none;stroke:#262728;stroke-width:1.1895;stroke-miterlimit:10;}
	.st76{fill:#6E1215;}
	.st77{opacity:0.88;}
	.st78{fill:#DE001C;}
	.st79{fill:#DF001B;}
	.st80{fill:#020201;stroke:#FFFFFF;stroke-width:0.5409;stroke-miterlimit:10;}
	.st81{fill:#DF001B;stroke:#FFFFFF;stroke-width:0.5409;stroke-miterlimit:10;}
	.st82{fill:#FFFFFF;stroke:#FFFFFF;stroke-width:2;stroke-miterlimit:10;}
	.st83{fill:url(#SVGID_1_);}
	.st84{fill:#23985B;}
	.st85{fill:#262728;}
	.st86{fill:none;stroke:#FFFFFF;stroke-width:1.6144;stroke-miterlimit:10;}
	.st87{fill:none;stroke:#737373;stroke-width:0.7652;stroke-miterlimit:10;}
	.st88{fill:none;stroke:#808080;stroke-width:0.3675;stroke-miterlimit:10;}
	.st89{fill:none;stroke:#40A6E2;stroke-width:1.408;stroke-miterlimit:10;}
	.st90{fill:#DF001B;stroke:#FFFFFF;stroke-width:0.4562;stroke-miterlimit:10;}
	.st91{fill:#1A1818;}
</style>
<g>
	<g>
		<path class="st29" d="M82.6,56.6c-1.4,0-2.6-0.3-3.6-0.8c-1-0.5-1.9-1.2-2.5-2c-0.7-0.8-1.2-1.7-1.5-2.6c-0.3-0.9-0.5-1.8-0.5-2.7
			v-0.5c0-0.9,0.2-1.9,0.5-2.8c0.3-0.9,0.8-1.8,1.5-2.6c0.7-0.8,1.5-1.4,2.5-1.9c1-0.5,2.2-0.7,3.6-0.7c1.4,0,2.6,0.2,3.6,0.7
			c1,0.5,1.9,1.1,2.5,1.9c0.7,0.8,1.2,1.7,1.5,2.6c0.3,0.9,0.5,1.9,0.5,2.8v0.5c0,0.9-0.2,1.8-0.5,2.7c-0.3,0.9-0.8,1.8-1.5,2.6
			c-0.7,0.8-1.5,1.5-2.5,2S84,56.6,82.6,56.6z M82.6,54.7c0.9,0,1.8-0.2,2.5-0.5c0.7-0.3,1.4-0.8,1.9-1.4c0.5-0.6,0.9-1.3,1.2-2
			c0.3-0.8,0.4-1.5,0.4-2.4c0-0.9-0.1-1.7-0.4-2.5c-0.3-0.8-0.7-1.4-1.2-2s-1.1-1-1.9-1.4c-0.7-0.3-1.6-0.5-2.5-0.5
			s-1.8,0.2-2.5,0.5c-0.7,0.3-1.4,0.8-1.9,1.4s-0.9,1.3-1.2,2c-0.3,0.8-0.4,1.6-0.4,2.5c0,0.8,0.1,1.6,0.4,2.4
			c0.3,0.8,0.7,1.4,1.2,2c0.5,0.6,1.1,1.1,1.9,1.4C80.9,54.5,81.7,54.7,82.6,54.7z"/>
		<path class="st29" d="M101.1,56.6c-1.4,0-2.7-0.3-3.7-0.8c-1-0.5-1.8-1.2-2.4-2c-0.6-0.8-1.1-1.7-1.4-2.6
			c-0.3-0.9-0.4-1.9-0.4-2.7v-0.5c0-0.9,0.1-1.9,0.4-2.8c0.3-0.9,0.8-1.8,1.4-2.6c0.6-0.8,1.4-1.4,2.4-1.9s2.2-0.7,3.6-0.7
			c1.4,0,2.6,0.2,3.6,0.7c1,0.5,1.8,1.2,2.4,2c0.6,0.9,0.9,1.9,1.1,3.1h-2.2c-0.1-0.9-0.4-1.6-0.9-2.2c-0.5-0.6-1-1-1.7-1.3
			c-0.7-0.3-1.5-0.4-2.3-0.4c-0.9,0-1.8,0.2-2.5,0.5c-0.7,0.3-1.3,0.8-1.8,1.4c-0.5,0.6-0.8,1.3-1.1,2c-0.2,0.8-0.4,1.6-0.4,2.5
			c0,0.8,0.1,1.7,0.4,2.4s0.6,1.4,1.1,2c0.5,0.6,1.1,1.1,1.8,1.4c0.7,0.3,1.6,0.5,2.5,0.5c1.4,0,2.5-0.3,3.4-1
			c0.9-0.7,1.5-1.7,1.7-2.9h2.2c-0.1,1.1-0.5,2.1-1.1,3c-0.6,0.9-1.4,1.6-2.4,2.1C103.8,56.3,102.5,56.6,101.1,56.6z"/>
		<path class="st29" d="M109.6,42.4v-1.9h11.7v1.9H109.6z M114.3,56.2V41.9h2.1v14.3H114.3z"/>
		<path class="st29" d="M130.7,56.6c-1.4,0-2.6-0.3-3.6-0.8c-1-0.5-1.9-1.2-2.5-2c-0.7-0.8-1.2-1.7-1.5-2.6
			c-0.3-0.9-0.5-1.8-0.5-2.7v-0.5c0-0.9,0.2-1.9,0.5-2.8c0.3-0.9,0.8-1.8,1.5-2.6c0.7-0.8,1.5-1.4,2.5-1.9c1-0.5,2.2-0.7,3.6-0.7
			c1.4,0,2.6,0.2,3.6,0.7c1,0.5,1.9,1.1,2.5,1.9c0.7,0.8,1.2,1.7,1.5,2.6c0.3,0.9,0.5,1.9,0.5,2.8v0.5c0,0.9-0.2,1.8-0.5,2.7
			c-0.3,0.9-0.8,1.8-1.5,2.6c-0.7,0.8-1.5,1.5-2.5,2S132.1,56.6,130.7,56.6z M130.7,54.7c0.9,0,1.8-0.2,2.5-0.5
			c0.7-0.3,1.4-0.8,1.9-1.4c0.5-0.6,0.9-1.3,1.2-2c0.3-0.8,0.4-1.5,0.4-2.4c0-0.9-0.1-1.7-0.4-2.5c-0.3-0.8-0.7-1.4-1.2-2
			s-1.1-1-1.9-1.4c-0.7-0.3-1.6-0.5-2.5-0.5s-1.8,0.2-2.5,0.5c-0.7,0.3-1.4,0.8-1.9,1.4s-0.9,1.3-1.2,2c-0.3,0.8-0.4,1.6-0.4,2.5
			c0,0.8,0.1,1.6,0.4,2.4c0.3,0.8,0.7,1.4,1.2,2c0.5,0.6,1.1,1.1,1.9,1.4C128.9,54.5,129.8,54.7,130.7,54.7z"/>
		<path class="st29" d="M142.3,56.3V40.4h2.1v15.9H142.3z M144,48.8v-1.4h3.8c0.9,0,1.5-0.2,2-0.7c0.4-0.5,0.6-1.1,0.6-1.8
			c0-0.8-0.2-1.4-0.6-1.9c-0.4-0.5-1.1-0.7-2-0.7H144v-1.9h3.5c1.7,0,3,0.4,3.9,1.1c0.8,0.7,1.3,1.8,1.3,3.1v0.3
			c0,1-0.2,1.7-0.6,2.3s-1,1-1.8,1.2c-0.8,0.2-1.7,0.4-2.7,0.4H144z M144,56.3v-1.9h4.4c0.8,0,1.5-0.2,2-0.7
			c0.5-0.5,0.7-1.1,0.7-1.9c0-0.8-0.2-1.5-0.7-1.9c-0.5-0.5-1.1-0.7-2-0.7H144v-1.4h4.1c1,0,1.9,0.1,2.7,0.4
			c0.8,0.2,1.4,0.7,1.8,1.2c0.4,0.6,0.7,1.3,0.7,2.3V52c0,0.9-0.2,1.7-0.6,2.3c-0.4,0.6-0.9,1.1-1.7,1.5c-0.8,0.3-1.7,0.5-2.9,0.5
			H144z"/>
		<path class="st29" d="M157,56.2V40.5h2.1v15.7H157z M158.6,42.4v-1.9h7.4v1.9H158.6z M158.6,49.2v-1.9h7v1.9H158.6z M158.6,56.2
			v-1.9h7.6v1.9H158.6z"/>
		<path class="st29" d="M169.9,56.2V40.4h2.1v15.8H169.9z M171.2,50.5v-1.9h4.2c0.7,0,1.2-0.1,1.7-0.4c0.5-0.3,0.8-0.7,1.1-1.1
			c0.3-0.5,0.4-1,0.4-1.7s-0.1-1.2-0.4-1.7c-0.3-0.5-0.6-0.9-1.1-1.1s-1-0.4-1.7-0.4h-4.2v-1.9h3.8c1.2,0,2.2,0.2,3,0.5
			c0.9,0.3,1.5,0.9,2,1.6c0.5,0.7,0.7,1.6,0.7,2.8v0.3c0,1.1-0.2,2.1-0.7,2.8c-0.5,0.7-1.2,1.3-2,1.6s-1.9,0.5-3,0.5H171.2z
			 M179.6,56.2l-5.2-7h2.5l5.3,7H179.6z"/>
		<path class="st29" d="M195.7,56.6c-1.2,0-2.2-0.2-3-0.6c-0.8-0.4-1.5-1-2-1.7c-0.5-0.7-0.9-1.5-1.1-2.4c-0.2-0.9-0.3-1.9-0.3-2.9
			v-1.2c0-1.5,0.2-2.8,0.7-3.9s1.2-2.1,2.1-2.8c1-0.7,2.2-1,3.7-1c1.5,0,2.7,0.3,3.7,1c0.9,0.7,1.7,1.6,2.1,2.8s0.7,2.5,0.7,3.9v1.2
			c0,1-0.1,2-0.3,2.9c-0.2,0.9-0.6,1.7-1.1,2.4c-0.5,0.7-1.2,1.3-2,1.7C197.8,56.4,196.8,56.6,195.7,56.6z M195.7,54.7
			c1.5,0,2.6-0.5,3.3-1.5c0.7-1,1-2.6,1-4.8c0-2.3-0.4-3.9-1.1-4.9c-0.7-1-1.8-1.5-3.3-1.5c-1.5,0-2.6,0.5-3.3,1.5
			c-0.7,1-1.1,2.6-1.1,4.9c0,2.2,0.4,3.8,1.1,4.9C193.1,54.2,194.2,54.7,195.7,54.7z"/>
		<path class="st29" d="M205.3,56.2v-2.6c0-0.6,0.1-1.2,0.3-1.6c0.2-0.4,0.5-0.9,0.9-1.2s1-0.7,1.8-1.1l3-1.4
			c0.7-0.3,1.3-0.8,1.7-1.3c0.4-0.5,0.6-1.2,0.6-2c0-1-0.3-1.8-0.8-2.4c-0.6-0.6-1.4-0.8-2.4-0.8c-1,0-1.8,0.3-2.4,0.8
			c-0.6,0.6-0.9,1.3-0.9,2.4h-2c0-0.9,0.2-1.7,0.6-2.5c0.4-0.8,1-1.4,1.7-1.8c0.8-0.5,1.8-0.7,3-0.7c1.2,0,2.2,0.2,2.9,0.7
			c0.8,0.5,1.3,1,1.7,1.8c0.4,0.7,0.6,1.5,0.6,2.4v0.3c0,1.1-0.3,2.1-1,2.9c-0.7,0.8-1.5,1.4-2.6,1.9l-3,1.4
			c-0.7,0.3-1.1,0.6-1.3,0.9c-0.2,0.3-0.3,0.7-0.3,1.2v2l-0.6-1h9v1.8H205.3z"/>
		<path class="st29" d="M218.4,51.1v-1.8h8v1.8H218.4z"/>
		<path class="st29" d="M235.9,56.6c-1.2,0-2.2-0.2-3-0.6c-0.8-0.4-1.5-1-2-1.7c-0.5-0.7-0.9-1.5-1.1-2.4c-0.2-0.9-0.3-1.9-0.3-2.9
			v-1.2c0-1.5,0.2-2.8,0.7-3.9s1.2-2.1,2.1-2.8c1-0.7,2.2-1,3.7-1c1.5,0,2.7,0.3,3.7,1c0.9,0.7,1.7,1.6,2.1,2.8s0.7,2.5,0.7,3.9v1.2
			c0,1-0.1,2-0.3,2.9c-0.2,0.9-0.6,1.7-1.1,2.4c-0.5,0.7-1.2,1.3-2,1.7C238.1,56.4,237.1,56.6,235.9,56.6z M235.9,54.7
			c1.5,0,2.6-0.5,3.3-1.5c0.7-1,1-2.6,1-4.8c0-2.3-0.4-3.9-1.1-4.9c-0.7-1-1.8-1.5-3.3-1.5c-1.5,0-2.6,0.5-3.3,1.5
			c-0.7,1-1.1,2.6-1.1,4.9c0,2.2,0.4,3.8,1.1,4.9C233.3,54.2,234.4,54.7,235.9,54.7z"/>
		<path class="st29" d="M250.3,56.6c-1.2,0-2.2-0.2-3-0.7c-0.8-0.5-1.4-1.1-1.9-1.8c-0.4-0.8-0.6-1.6-0.6-2.5h2c0,1,0.3,1.8,0.9,2.3
			c0.6,0.6,1.5,0.9,2.5,0.9c0.7,0,1.3-0.1,1.8-0.4c0.5-0.3,0.9-0.6,1.2-1.1c0.3-0.5,0.4-1,0.4-1.7c0-1-0.3-1.8-0.9-2.4
			c-0.6-0.6-1.5-0.9-2.5-0.9c-0.4,0-0.8,0.1-1.2,0.2c-0.3,0.1-0.6,0.2-0.9,0.4l-1-1.9l6-4.4l-0.2-0.4h-7.7v-1.8h9.6v2.9l-5,3.6
			l-1.5,0.1c0.2-0.1,0.5-0.2,0.8-0.2c0.3-0.1,0.6-0.1,1-0.1c1.2,0,2.1,0.2,2.9,0.6c0.8,0.4,1.4,1,1.8,1.7c0.4,0.7,0.6,1.5,0.6,2.4
			v0.3c0,0.8-0.2,1.6-0.6,2.4c-0.4,0.7-1,1.3-1.9,1.8C252.5,56.4,251.5,56.6,250.3,56.6z"/>
	</g>
	<g>
		<path class="st28" d="M75.8,28.8V6.6h5v22.3H75.8z M80.1,22.5v-4.3h4c0.8,0,1.4-0.2,2-0.5c0.6-0.3,1-0.7,1.3-1.3s0.5-1.2,0.5-1.9
			c0-0.8-0.2-1.4-0.5-2c-0.3-0.6-0.7-1-1.3-1.3c-0.6-0.3-1.2-0.4-2-0.4h-4V6.6h3.7c1.9,0,3.5,0.3,4.8,0.9C90,8.1,91,9,91.7,10.2
			c0.7,1.1,1.1,2.5,1.1,4.1v0.5c0,1.6-0.4,2.9-1.1,4.1C91,20,90,20.9,88.7,21.6c-1.3,0.6-2.9,0.9-4.8,0.9H80.1z"/>
		<path class="st28" d="M106.5,29.4c-2,0-3.7-0.3-5.2-1s-2.7-1.6-3.7-2.8c-1-1.1-1.7-2.4-2.2-3.7c-0.5-1.3-0.7-2.6-0.7-3.8v-0.7
			c0-1.4,0.2-2.7,0.7-4.1c0.5-1.3,1.2-2.6,2.2-3.6c1-1.1,2.2-2,3.7-2.6c1.5-0.7,3.2-1,5.1-1c1.9,0,3.6,0.3,5.1,1
			c1.5,0.7,2.7,1.5,3.7,2.6c1,1.1,1.7,2.3,2.2,3.6c0.5,1.3,0.8,2.7,0.8,4.1V18c0,1.2-0.2,2.5-0.7,3.8c-0.5,1.3-1.2,2.6-2.2,3.7
			c-1,1.1-2.2,2.1-3.7,2.8S108.5,29.4,106.5,29.4z M106.5,24.8c1,0,2-0.2,2.8-0.5c0.8-0.4,1.6-0.9,2.1-1.5c0.6-0.6,1-1.4,1.3-2.2
			c0.3-0.8,0.5-1.8,0.5-2.7c0-1-0.2-2-0.5-2.8c-0.3-0.9-0.8-1.6-1.4-2.2c-0.6-0.6-1.3-1.1-2.1-1.5c-0.8-0.3-1.8-0.5-2.8-0.5
			c-1,0-2,0.2-2.8,0.5c-0.8,0.3-1.5,0.8-2.1,1.5c-0.6,0.6-1,1.4-1.3,2.2c-0.3,0.9-0.5,1.8-0.5,2.8c0,1,0.2,1.9,0.5,2.7
			c0.3,0.8,0.8,1.6,1.3,2.2c0.6,0.6,1.3,1.1,2.1,1.5C104.5,24.6,105.5,24.8,106.5,24.8z"/>
		<path class="st28" d="M122.1,28.8V6.7h4.8v22.1H122.1z M126.3,10.8V6.7h9.4v4.1H126.3z M126.3,19.6v-4.1h9v4.1H126.3z M126.3,28.8
			v-4.1h9.6v4.1H126.3z"/>
		<path class="st28" d="M150,29.4c-2,0-3.7-0.3-5.1-1c-1.4-0.7-2.6-1.6-3.5-2.8c-0.9-1.1-1.6-2.4-2-3.7c-0.4-1.3-0.7-2.6-0.7-3.9
			v-0.7c0-1.4,0.2-2.7,0.7-4.1c0.4-1.3,1.1-2.6,2-3.6c0.9-1.1,2.1-2,3.5-2.6c1.4-0.7,3.1-1,5-1c2,0,3.8,0.4,5.3,1.1
			c1.5,0.7,2.8,1.8,3.7,3.1c0.9,1.3,1.5,2.9,1.6,4.6h-5c-0.1-0.9-0.5-1.6-1-2.3c-0.5-0.6-1.2-1.1-2-1.5c-0.8-0.3-1.7-0.5-2.7-0.5
			c-1,0-1.9,0.2-2.6,0.5c-0.8,0.3-1.4,0.8-1.9,1.5c-0.5,0.6-0.9,1.4-1.2,2.2c-0.3,0.9-0.4,1.8-0.4,2.9c0,1,0.1,2,0.4,2.8
			c0.3,0.9,0.7,1.6,1.2,2.2c0.5,0.6,1.2,1.1,2,1.5c0.8,0.3,1.7,0.5,2.7,0.5c1.5,0,2.8-0.4,3.9-1.1c1.1-0.7,1.7-1.8,1.9-3.1h5
			c-0.2,1.6-0.7,3.1-1.6,4.4c-0.9,1.3-2.1,2.4-3.7,3.2S152.1,29.4,150,29.4z"/>
		<path class="st28" d="M163.1,22.4v-4.3h12.7v4.3H163.1z"/>
		<path class="st28" d="M179,28.8v-4.5c0-0.9,0.2-1.8,0.5-2.5c0.3-0.7,0.8-1.3,1.5-1.9c0.7-0.6,1.6-1.1,2.7-1.6l3.6-1.5
			c0.9-0.4,1.6-0.9,2-1.4c0.4-0.6,0.7-1.3,0.7-2.1c0-0.9-0.3-1.6-0.8-2.2c-0.5-0.6-1.3-0.8-2.4-0.8c-1,0-1.8,0.3-2.4,0.9
			c-0.5,0.6-0.8,1.4-0.8,2.4h-4.8c0-1.4,0.3-2.6,0.9-3.8s1.5-2,2.7-2.6c1.2-0.6,2.7-1,4.4-1c1.8,0,3.2,0.3,4.4,0.9
			c1.2,0.6,2.1,1.5,2.7,2.5c0.6,1,0.9,2.2,0.9,3.5v0.4c0,1.7-0.5,3.1-1.4,4.2c-0.9,1.1-2.4,2.1-4.3,2.9l-3.5,1.5
			c-0.6,0.3-1,0.5-1.3,0.8c-0.3,0.3-0.4,0.7-0.4,1.1v1.5l-1.2-1h12.1v4.3H179z"/>
		<path class="st28" d="M207.8,29.4c-1.8,0-3.3-0.3-4.5-0.9c-1.3-0.6-2.3-1.4-3-2.3c-0.8-1-1.4-2.1-1.7-3.4
			c-0.4-1.3-0.6-2.7-0.6-4.1v-1.7c0-2,0.4-3.8,1.1-5.5c0.7-1.6,1.8-2.9,3.2-3.9c1.5-1,3.3-1.5,5.5-1.5c2.2,0,4.1,0.5,5.5,1.5
			c1.4,1,2.5,2.3,3.2,3.9c0.7,1.6,1.1,3.5,1.1,5.5v1.7c0,1.5-0.2,2.8-0.6,4.1c-0.4,1.3-0.9,2.4-1.7,3.4c-0.8,1-1.8,1.8-3,2.3
			C211.1,29.1,209.6,29.4,207.8,29.4z M207.8,24.8c1.6,0,2.8-0.6,3.6-1.7c0.8-1.1,1.2-2.9,1.2-5.3c0-2.5-0.4-4.4-1.2-5.5
			c-0.8-1.1-2-1.7-3.6-1.7c-1.6,0-2.9,0.6-3.7,1.7c-0.8,1.1-1.2,2.9-1.2,5.4c0,2.4,0.4,4.2,1.2,5.4
			C204.9,24.2,206.2,24.8,207.8,24.8z"/>
		<path class="st28" d="M221.2,28.8v-4.5c0-0.9,0.2-1.8,0.5-2.5c0.3-0.7,0.8-1.3,1.5-1.9c0.7-0.6,1.6-1.1,2.7-1.6l3.6-1.5
			c0.9-0.4,1.6-0.9,2-1.4c0.4-0.6,0.7-1.3,0.7-2.1c0-0.9-0.3-1.6-0.8-2.2c-0.5-0.6-1.3-0.8-2.4-0.8c-1,0-1.8,0.3-2.4,0.9
			c-0.5,0.6-0.8,1.4-0.8,2.4h-4.8c0-1.4,0.3-2.6,0.9-3.8s1.5-2,2.7-2.6c1.2-0.6,2.7-1,4.4-1c1.8,0,3.2,0.3,4.4,0.9
			c1.2,0.6,2.1,1.5,2.7,2.5c0.6,1,0.9,2.2,0.9,3.5v0.4c0,1.7-0.5,3.1-1.4,4.2c-0.9,1.1-2.4,2.1-4.3,2.9l-3.5,1.5
			c-0.6,0.3-1,0.5-1.3,0.8c-0.3,0.3-0.4,0.7-0.4,1.1v1.5l-1.2-1h12.1v4.3H221.2z"/>
		<path class="st28" d="M248.3,29.4c-1.8,0-3.3-0.3-4.5-1c-1.3-0.7-2.2-1.6-2.9-2.7c-0.7-1.1-1-2.4-1-3.8h4.8c0,0.7,0.2,1.3,0.5,1.8
			c0.3,0.5,0.8,0.9,1.3,1.2c0.6,0.3,1.2,0.4,1.9,0.4c0.8,0,1.5-0.2,2-0.5c0.6-0.3,1-0.8,1.3-1.4s0.5-1.2,0.5-2c0-0.7-0.1-1.4-0.4-2
			c-0.3-0.6-0.7-1-1.3-1.4c-0.6-0.3-1.2-0.5-2-0.5c-0.7,0-1.4,0.2-2,0.5c-0.6,0.3-1,0.7-1.3,1.1h-4.7l1.1-12.5H255V11h-11.4l1.9-1.3
			l-0.7,7.2l-1.1-0.3c0.6-0.7,1.3-1.3,2.2-1.8c0.9-0.5,2-0.7,3.4-0.7c1.6,0,3,0.3,4.1,1c1.1,0.7,2,1.5,2.6,2.6
			c0.6,1.1,0.9,2.3,0.9,3.7v0.4c0,1.4-0.3,2.6-1,3.8c-0.7,1.2-1.6,2.1-2.9,2.8C251.7,29,250.2,29.4,248.3,29.4z"/>
	</g>
	<g>
		<g>
			<g>
				<path class="st28" d="M40.1,27.3c2.5,0.6,4.5,1,6.2,1.4c0,2.6-0.2,5.1,0,7.6c0.4,4.1,1.1,8.2,1.8,12.3c0.3,1.9-0.2,3.4-1.7,4.1
					c-1.9,1-4.1,0-4.7-2.1c-1.7-5.7-2.5-11.4-2.2-17.3C39.7,31.3,39.9,29.4,40.1,27.3z"/>
			</g>
			<g>
				<path class="st28" d="M37.3,36.9c0.2,2.3,0.4,4.4,0.6,6.7c-1.1,0.2-2.2,0.5-3.3,0.7c-5.4,1.3-10.3,3.7-15,6.7
					c-1.3,0.8-2.6,1-3.9,0.2c-1.2-0.8-1.8-1.9-1.5-3.2c0.2-0.8,0.6-1.8,1.3-2.3C22,41.2,29.2,38.1,37.3,36.9z"/>
			</g>
			<g>
				<path class="st28" d="M32,21.6c1.2-2,2.3-3.8,3.4-5.7c0.8,0.4,1.6,0.7,2.3,1.1c5.3,2.3,11,3.4,16.8,3.7c2.2,0.1,3.6,1.5,3.5,3.5
					c-0.1,2-1.6,3.4-3.8,3.3C46.7,27,39.4,25.4,32.7,22C32.5,21.9,32.3,21.7,32,21.6z"/>
			</g>
			<g>
				<path class="st28" d="M24.2,27.9c-1.8-2-3.2-3.6-4.5-5.1c1.9-2.5,3.9-4.8,5.5-7.4c1.7-2.8,3.1-5.9,4.5-8.9
					c1.2-2.5,2.7-3.6,4.7-2.8c2,0.8,2.6,2.6,1.7,5.2c-2.5,6.6-6.1,12.6-11,17.7C24.8,26.9,24.6,27.3,24.2,27.9z"/>
			</g>
			<g>
				<path class="st28" d="M21,39.8c-3.1-6.2-7.6-11-12.8-15.3c-1.5-1.3-1.7-3.3-0.6-4.7c1.2-1.4,3.1-1.8,4.6-0.7
					c6.3,4.9,11.4,10.7,15,18C25.2,38,23.2,38.9,21,39.8z"/>
			</g>
		</g>
		<g>
			<path class="st29" d="M12,10.1c0-3.5,2.9-6.4,6.4-6.4c3.5,0,6.4,2.9,6.4,6.4c0,3.6-2.8,6.5-6.4,6.5C15,16.5,12.1,13.6,12,10.1z"
				/>
		</g>
		<g>
			<path class="st29" d="M46.2,17.1c-3.5-0.1-6.4-3-6.3-6.6c0.1-3.5,3-6.3,6.5-6.2c3.6,0,6.4,3,6.3,6.5
				C52.7,14.4,49.8,17.2,46.2,17.1z"/>
		</g>
		<g>
			<path class="st29" d="M61.3,37.3c0,3.6-2.9,6.4-6.5,6.4c-3.6,0-6.4-2.9-6.3-6.5c0-3.5,2.8-6.3,6.4-6.3
				C58.5,30.9,61.3,33.7,61.3,37.3z"/>
		</g>
		<g>
			<path class="st29" d="M31.9,60.5c-3.6-0.1-6.5-3-6.3-6.5c0.1-3.6,3-6.3,6.6-6.3c3.5,0.1,6.4,3.1,6.3,6.6
				C38.4,57.9,35.4,60.6,31.9,60.5z"/>
		</g>
		<g>
			<path class="st29" d="M8.7,30.4c3.6,0,6.4,2.8,6.4,6.4c0,3.5-2.8,6.3-6.3,6.4c-3.6,0-6.5-2.8-6.5-6.4C2.3,33.2,5.1,30.4,8.7,30.4
				z"/>
		</g>
	</g>
	<g>
		<rect x="74.1" y="35.1" class="st28" width="182.8" height="0.7"/>
	</g>
</g>
</svg>
